<svg width="800" height="1000" xmlns="http://www.w3.org/2000/svg">
  <!-- Background -->
  <rect width="800" height="1000" fill="#f5f5f5"/>
  
  <!-- Header -->
  <rect x="20" y="20" width="760" height="80" fill="white" stroke="#333" stroke-width="2"/>
  <rect x="40" y="40" width="150" height="40" fill="#ddd" stroke="#666" stroke-width="1"/>
  <text x="115" y="65" text-anchor="middle" font-family="Arial" font-size="14" fill="#333">Logo</text>
  <rect x="520" y="45" width="70" height="30" fill="#FFEBD1" stroke="#666" stroke-width="1"/>
  <text x="555" y="65" text-anchor="middle" font-family="Arial" font-size="12" fill="#333">Home</text>
  <rect x="600" y="45" width="70" height="30" fill="#ddd" stroke="#666" stroke-width="1"/>
  <text x="635" y="65" text-anchor="middle" font-family="Arial" font-size="12" fill="#333">Llamas</text>
  <rect x="680" y="45" width="80" height="30" fill="#ddd" stroke="#666" stroke-width="1"/>
  <text x="720" y="65" text-anchor="middle" font-family="Arial" font-size="12" fill="#333">Contact</text>
  
  <!-- Hero Section -->
  <rect x="20" y="120" width="760" height="200" fill="white" stroke="#333" stroke-width="2"/>
  <text x="400" y="160" text-anchor="middle" font-family="Arial" font-size="18" font-weight="bold" fill="#333">Welcome to Llamaholic</text>
  <text x="400" y="190" text-anchor="middle" font-family="Arial" font-size="14" fill="#333">Side effects of being a LlamaHolic may include...</text>
  <text x="400" y="210" text-anchor="middle" font-family="Arial" font-size="14" fill="#333">uncontrollable smiling at fluffy animals</text>
  <rect x="320" y="240" width="160" height="40" fill="#E76363" stroke="#333" stroke-width="1" rx="5"/>
  <text x="400" y="265" text-anchor="middle" font-family="Arial" font-size="14" fill="white">Watch Videos</text>
  
  <!-- Featured Video Section -->
  <rect x="20" y="340" width="760" height="300" fill="white" stroke="#333" stroke-width="2"/>
  <text x="400" y="370" text-anchor="middle" font-family="Arial" font-size="16" font-weight="bold" fill="#333">Featured Video</text>
  <rect x="150" y="390" width="500" height="230" fill="#ddd" stroke="#666" stroke-width="2"/>
  <circle cx="400" cy="505" r="40" fill="#E76363"/>
  <polygon points="390,490 390,520 415,505" fill="white"/>
  
  <!-- Photo Gallery Section -->
  <rect x="20" y="660" width="760" height="280" fill="white" stroke="#333" stroke-width="2"/>
  <text x="400" y="690" text-anchor="middle" font-family="Arial" font-size="16" font-weight="bold" fill="#333">Llama Gallery</text>
  
  <!-- Gallery Grid (3x2) -->
  <rect x="50" y="710" width="220" height="180" fill="#ddd" stroke="#666" stroke-width="1"/>
  <text x="160" y="805" text-anchor="middle" font-family="Arial" font-size="12" fill="#666">Llama Photo</text>
  
  <rect x="290" y="710" width="220" height="180" fill="#ddd" stroke="#666" stroke-width="1"/>
  <text x="400" y="805" text-anchor="middle" font-family="Arial" font-size="12" fill="#666">Llama Photo</text>
  
  <rect x="530" y="710" width="220" height="180" fill="#ddd" stroke="#666" stroke-width="1"/>
  <text x="640" y="805" text-anchor="middle" font-family="Arial" font-size="12" fill="#666">Llama Photo</text>
  
  <!-- Footer -->
  <rect x="20" y="960" width="760" height="30" fill="#41521F" stroke="#41521F" stroke-width="2"/>
  <text x="400" y="980" text-anchor="middle" font-family="Arial" font-size="12" fill="white">© 2025 Llamaholic - Devin Orton</text>
</svg>

